Normalized EMG Linear Envelopes
nRows=176
nColumns=4

endheader
time	 med_gas_r	  soleus_r	 tib_ant_r	
3.99974	  0.068826	  0.066231	  0.024609	
4.06224	  0.066014	  0.061693	  0.022764	
4.12474	  0.064062	  0.058809	  0.021631	
4.18723	  0.063210	  0.057894	  0.021400	
4.24973	  0.062968	  0.057771	  0.021742	
4.31222	  0.062638	  0.056970	  0.022114	
4.37472	  0.062117	  0.055198	  0.022046	
4.43722	  0.061812	  0.053582	  0.021398	
4.49971	  0.061632	  0.053472	  0.020432	
4.56221	  0.061220	  0.055136	  0.019574	
4.6247	  0.060976	  0.057637	  0.019131	
4.6872	  0.061603	  0.059857	  0.019174	
4.7497	  0.062945	  0.061533	  0.019552	
4.81219	  0.063821	  0.063069	  0.020027	
4.87469	  0.063320	  0.064465	  0.020456	
4.93718	  0.061946	  0.065225	  0.020784	
4.99968	  0.060906	  0.065246	  0.020930	
5.06218	  0.060945	  0.065004	  0.020850	
5.12467	  0.061929	  0.064938	  0.020695	
5.18717	  0.062699	  0.065015	  0.020722	
5.24966	  0.061937	  0.064883	  0.020993	
5.31216	  0.059497	  0.064317	  0.021327	
5.37466	  0.056554	  0.063591	  0.021591	
5.43715	  0.054765	  0.063475	  0.021893	
5.49965	  0.055126	  0.064472	  0.022383	
5.56214	  0.057419	  0.065835	  0.022960	
5.62464	  0.060772	  0.065980	  0.023219	
5.68714	  0.063535	  0.063881	  0.022755	
5.74963	  0.062944	  0.059405	  0.021560	
5.81213	  0.058170	  0.053447	  0.020011	
5.87462	  0.054346	  0.049814	  0.018620	
5.93712	  0.063037	  0.057492	  0.018122	
5.99962	  0.100660	  0.089820	  0.019841	
6.06211	  0.183073	  0.156696	  0.025725	
6.12461	  0.310511	  0.251843	  0.037236	
6.1871	  0.453926	  0.351239	  0.053252	
6.2496	  0.568929	  0.431537	  0.069784	
6.3121	  0.631564	  0.486610	  0.083281	
6.37459	  0.652272	  0.523771	  0.093690	
6.43709	  0.657303	  0.553061	  0.102850	
6.49958	  0.667885	  0.581833	  0.111265	
6.56208	  0.687736	  0.609930	  0.118241	
6.62458	  0.701464	  0.629077	  0.123447	
6.68707	  0.694722	  0.635758	  0.126412	
6.74957	  0.672245	  0.643339	  0.126048	
6.81206	  0.646099	  0.668399	  0.122025	
6.87456	  0.620188	  0.707343	  0.115817	
6.93706	  0.596302	  0.740996	  0.109550	
6.99955	  0.581472	  0.754945	  0.103834	
7.06205	  0.580267	  0.742381	  0.097702	
7.12454	  0.585290	  0.699058	  0.090882	
7.18704	  0.582872	  0.629437	  0.084496	
7.24954	  0.570344	  0.551780	  0.079799	
7.31203	  0.559374	  0.485493	  0.077521	
7.37453	  0.557587	  0.436172	  0.077096	
7.43702	  0.560824	  0.401879	  0.076254	
7.49952	  0.566413	  0.383751	  0.073244	
7.56202	  0.574662	  0.380877	  0.068692	
7.62451	  0.576659	  0.386155	  0.064284	
7.68701	  0.558590	  0.392412	  0.061455	
7.7495	  0.521267	  0.398294	  0.061477	
7.812	  0.483278	  0.408296	  0.064698	
7.8745	  0.460683	  0.427379	  0.069919	
7.93699	  0.456338	  0.455710	  0.075551	
7.99949	  0.469333	  0.487140	  0.080291	
8.06198	  0.500058	  0.511715	  0.083009	
8.12448	  0.544240	  0.522725	  0.083802	
8.18698	  0.587277	  0.521108	  0.084128	
8.24947	  0.611352	  0.510947	  0.084770	
8.31197	  0.612853	  0.493468	  0.085000	
8.37446	  0.604744	  0.469403	  0.083794	
8.43696	  0.598332	  0.447544	  0.081074	
8.49946	  0.591863	  0.443988	  0.077961	
8.56195	  0.579340	  0.464699	  0.075643	
8.62445	  0.563024	  0.495831	  0.074095	
8.68694	  0.551370	  0.518908	  0.072536	
8.74944	  0.545979	  0.523398	  0.070430	
8.81194	  0.539594	  0.504438	  0.067648	
8.87443	  0.527629	  0.466332	  0.064517	
8.93693	  0.512528	  0.425308	  0.062054	
8.99942	  0.500812	  0.398301	  0.061842	
9.06192	  0.501428	  0.392807	  0.065104	
9.12442	  0.518778	  0.406196	  0.071218	
9.18691	  0.547225	  0.428220	  0.077513	
9.24941	  0.579464	  0.446884	  0.081471	
9.3119	  0.614197	  0.458667	  0.082939	
9.3744	  0.648247	  0.471023	  0.083384	
9.4369	  0.669296	  0.489671	  0.083708	
9.49939	  0.665857	  0.509955	  0.084215	
9.56189	  0.641080	  0.525382	  0.085568	
9.62438	  0.611353	  0.536585	  0.087604	
9.68688	  0.592593	  0.548759	  0.088509	
9.74938	  0.587723	  0.564859	  0.087141	
9.81187	  0.585618	  0.582771	  0.084864	
9.87437	  0.576378	  0.597179	  0.083757	
9.93686	  0.564491	  0.600588	  0.083688	
9.99936	  0.556975	  0.583470	  0.082301	
10.0619	  0.550340	  0.541672	  0.078118	
10.1244	  0.544732	  0.486302	  0.072415	
10.1868	  0.555143	  0.440977	  0.067799	
10.2493	  0.590448	  0.426573	  0.066120	
10.3118	  0.633200	  0.447143	  0.067398	
10.3743	  0.655384	  0.488679	  0.069690	
10.4368	  0.644796	  0.531263	  0.070393	
10.4993	  0.609079	  0.561286	  0.068400	
10.5618	  0.566140	  0.572106	  0.064987	
10.6243	  0.531653	  0.560991	  0.062473	
10.6868	  0.509374	  0.533022	  0.062058	
10.7493	  0.498076	  0.501131	  0.063070	
10.8118	  0.502356	  0.477910	  0.064148	
10.8743	  0.523946	  0.472001	  0.064475	
10.9368	  0.549670	  0.483330	  0.063745	
10.9993	  0.563861	  0.497696	  0.062026	
11.0618	  0.569820	  0.501206	  0.059960	
11.1243	  0.588368	  0.497548	  0.058418	
11.1868	  0.638190	  0.497508	  0.058041	
11.2493	  0.717879	  0.500664	  0.059104	
11.3118	  0.798890	  0.498708	  0.061337	
11.3743	  0.840369	  0.487893	  0.064008	
11.4368	  0.819925	  0.471364	  0.066332	
11.4993	  0.751906	  0.457211	  0.067920	
11.5618	  0.674652	  0.454989	  0.068976	
11.6243	  0.616780	  0.464841	  0.069520	
11.6868	  0.577777	  0.474036	  0.068306	
11.7492	  0.539937	  0.469250	  0.063797	
11.8117	  0.489966	  0.443200	  0.056420	
11.8742	  0.431292	  0.393516	  0.048753	
11.9367	  0.380988	  0.327840	  0.043572	
11.9992	  0.352830	  0.263208	  0.042008	
12.0617	  0.344715	  0.212955	  0.043225	
12.1242	  0.341790	  0.178232	  0.045934	
12.1867	  0.327768	  0.152241	  0.050026	
12.2492	  0.296597	  0.129947	  0.056024	
12.3117	  0.256535	  0.112378	  0.063132	
12.3742	  0.221042	  0.100948	  0.068715	
12.4367	  0.196883	  0.092343	  0.070431	
12.4992	  0.183125	  0.083188	  0.068501	
12.5617	  0.178076	  0.074952	  0.064874	
12.6242	  0.182506	  0.070691	  0.061222	
12.6867	  0.194027	  0.070902	  0.059102	
12.7492	  0.202745	  0.073572	  0.059696	
12.8117	  0.200615	  0.075470	  0.061762	
12.8742	  0.191370	  0.074349	  0.061929	
12.9367	  0.184108	  0.071163	  0.057900	
12.9992	  0.182721	  0.068745	  0.050583	
13.0617	  0.184901	  0.068433	  0.043146	
13.1242	  0.186481	  0.069375	  0.038162	
13.1867	  0.185371	  0.070470	  0.035943	
13.2492	  0.182146	  0.071297	  0.035671	
13.3116	  0.177355	  0.071330	  0.036883	
13.3741	  0.170131	  0.069957	  0.039451	
13.4366	  0.160229	  0.067666	  0.043179	
13.4991	  0.150671	  0.066025	  0.047595	
13.5616	  0.146976	  0.066478	  0.051649	
13.6241	  0.153575	  0.069772	  0.054137	
13.6866	  0.169865	  0.075560	  0.054776	
13.7491	  0.186539	  0.081795	  0.054390	
13.8116	  0.190288	  0.085951	  0.054058	
13.8741	  0.178848	  0.087405	  0.054452	
13.9366	  0.164372	  0.087325	  0.055697	
13.9991	  0.157580	  0.086494	  0.057622	
14.0616	  0.159356	  0.084686	  0.059909	
14.1241	  0.169136	  0.081817	  0.061860	
14.1866	  0.186669	  0.078689	  0.062385	
14.2491	  0.202650	  0.076783	  0.060562	
14.3116	  0.203480	  0.077778	  0.056449	
14.3741	  0.189251	  0.082526	  0.051291	
14.4366	  0.173263	  0.089749	  0.046791	
14.4991	  0.164092	  0.096656	  0.044518	
14.5616	  0.159221	  0.101382	  0.045582	
14.6241	  0.152586	  0.103822	  0.049943	
14.6866	  0.142223	  0.104255	  0.056124	
14.7491	  0.132663	  0.102359	  0.062257	
14.8116	  0.130542	  0.097250	  0.067406	
14.874	  0.138212	  0.088249	  0.071654	
14.9365	  0.152301	  0.076351	  0.075444	
